STARTFONT 2.1
FONT vbee-36
SIZE 34 75 75
FONTBOUNDINGBOX 38 36 0 -7

STARTPROPERTIES 10
COPYRIGHT "Public domain font.  Share and enjoy."
POINT_SIZE 340
WEIGHT 10
RESOLUTION_X 75
RESOLUTION_Y 75
X_HEIGHT 29
QUAD_WIDTH 20
DEFAULT_CHAR 0
FONT_DESCENT 7
FONT_ASCENT 29
ENDPROPERTIES

CHARS 79

STARTCHAR C040
ENCODING 32
SWIDTH 264 0
DWIDTH 9 0
BBX 9 36 0 -7
BITMAP
0000
0000
0000
0000
0000
0000
0000
0000
0000
0000
0000
0000
0000
0000
0000
0000
0000
0000
0000
0000
0000
0000
0000
0000
0000
0000
0000
0000
0000
0000
0000
0000
0000
0000
0000
0000
ENDCHAR

STARTCHAR !
ENCODING 33
SWIDTH 441 0
DWIDTH 15 0
BBX 15 36 0 -7
BITMAP
0E00
1F00
1F00
3F80
7FC0
FFE0
FFE0
FFE0
FFE0
7FC0
7FC0
7FC0
3F80
3F80
3F80
1F00
1F00
1F00
0E00
0E00
0E00
0000
0000
0E00
1F00
1F00
0E00
0000
0000
0000
0000
0000
0000
0000
0000
0000
ENDCHAR

STARTCHAR "
ENCODING 34
SWIDTH 441 0
DWIDTH 15 0
BBX 15 36 0 -7
BITMAP
3060
78F0
F8F8
F8F8
F8F8
78F0
78F0
38E0
18C0
0880
0000
0000
0000
0000
0000
0000
0000
0000
0000
0000
0000
0000
0000
0000
0000
0000
0000
0000
0000
0000
0000
0000
0000
0000
0000
0000
ENDCHAR

STARTCHAR '
ENCODING 39
SWIDTH 264 0
DWIDTH 9 0
BBX 9 36 0 -7
BITMAP
3C00
FE00
FF00
FF00
E700
0300
0600
1C00
3800
3000
1000
0000
0000
0000
0000
0000
0000
0000
0000
0000
0000
0000
0000
0000
0000
0000
0000
0000
0000
0000
0000
0000
0000
0000
0000
0000
ENDCHAR

STARTCHAR (
ENCODING 40
SWIDTH 558 0
DWIDTH 19 0
BBX 19 36 0 -7
BITMAP
000000
01C000
038000
0F0000
1F0000
1E0000
3E0000
3C0000
3C0000
780000
F80000
F80000
F80000
F80000
F80000
F80000
F80000
F80000
F80000
780000
3C0000
3C0000
3E0000
1E0000
1E0000
0F0000
038000
01C000
000000
000000
000000
000000
000000
000000
000000
000000
ENDCHAR

STARTCHAR )
ENCODING 41
SWIDTH 558 0
DWIDTH 19 0
BBX 19 36 0 -7
BITMAP
000000
E00000
700000
3C0000
3E0000
1E0000
1F0000
0F0000
0F0000
078000
07C000
07C000
07C000
07C000
07C000
07C000
07C000
07C000
07C000
078000
0F0000
0F0000
1F0000
1E0000
1E0000
3C0000
700000
E00000
000000
000000
000000
000000
000000
000000
000000
000000
ENDCHAR

STARTCHAR ,
ENCODING 44
SWIDTH 411 0
DWIDTH 14 0
BBX 14 36 0 -7
BITMAP
0000
0000
0000
0000
0000
0000
0000
0000
0000
0000
0000
0000
0000
0000
0000
0000
0000
0000
0000
0000
0000
0000
0000
0000
1C00
3E00
7F80
FF00
3E00
1C00
3800
7000
0000
0000
0000
0000
ENDCHAR

STARTCHAR -
ENCODING 45
SWIDTH 441 0
DWIDTH 15 0
BBX 15 36 0 -7
BITMAP
0000
0000
0000
0000
0000
0000
0000
0000
0000
0000
0000
0000
003C
7FF8
7FF8
7FF8
7FF8
F000
0000
0000
0000
0000
0000
0000
0000
0000
0000
0000
0000
0000
0000
0000
0000
0000
0000
0000
ENDCHAR

STARTCHAR .
ENCODING 46
SWIDTH 411 0
DWIDTH 14 0
BBX 14 36 0 -7
BITMAP
0000
0000
0000
0000
0000
0000
0000
0000
0000
0000
0000
0000
0000
0000
0000
0000
0000
0000
0000
0000
0000
0000
1C00
3E00
7F80
FF00
3E00
1C00
0000
0000
0000
0000
0000
0000
0000
0000
ENDCHAR

STARTCHAR /
ENCODING 47
SWIDTH 470 0
DWIDTH 16 0
BBX 16 36 0 -7
BITMAP
0078
0070
00F0
00F0
00E0
01E0
01E0
01C0
03C0
03C0
0380
0780
0780
0700
0F00
0F00
0E00
1E00
1E00
1C00
3C00
3C00
3800
7800
7800
7000
F000
F000
E000
E000
0000
0000
0000
0000
0000
0000
ENDCHAR

STARTCHAR 0
ENCODING 48
SWIDTH 558 0
DWIDTH 19 0
BBX 19 36 0 -7
BITMAP
000000
000000
07F000
1FFC00
381C00
701C00
703E00
703F00
E01380
E00380
E00380
E001C0
E001C0
E001C0
E001C0
E001C0
E001C0
E001C0
F001C0
F003C0
F803C0
F807C0
FFFFC0
7FFF80
7FFF80
3FFF00
1FFE00
0FF800
000000
000000
000000
000000
000000
000000
000000
000000
ENDCHAR

STARTCHAR 1
ENCODING 49
SWIDTH 382 0
DWIDTH 13 0
BBX 13 36 0 -7
BITMAP
00C0
01C0
03C0
07C0
0FC0
3FC0
F3C0
E3C0
03C0
03C0
03C0
03C0
03C0
03C0
03C0
03C0
03C0
03C0
03C0
03C0
03C0
03C0
03C0
03C0
07E0
0FF0
1FF0
0FF0
0000
0000
0000
0000
0000
0000
0000
0000
ENDCHAR

STARTCHAR 2
ENCODING 50
SWIDTH 647 0
DWIDTH 22 0
BBX 22 36 0 -7
BITMAP
07F800
1FFE00
3C3F00
781F80
700F80
700FC0
704FC0
70C7C0
7FC7C0
7FC7C0
7FCF80
3FCF80
3F8F00
001E00
003C00
007800
00F000
01C000
038080
0701C0
0C0180
1C01C0
3C79C0
3FFFE0
7FFFE0
7FFFE0
FFFFE0
7FFFC0
000000
000000
000000
000000
000000
000000
000000
000000
ENDCHAR

STARTCHAR 3
ENCODING 51
SWIDTH 647 0
DWIDTH 22 0
BBX 22 36 0 -7
BITMAP
1FFC00
3FFF00
780F80
780F80
7E0F80
7E0F80
000F80
003F00
00FC00
03C000
0F0000
0FE000
01FC00
001F00
000F80
0007C0
0007E0
0007E0
0007E0
0007E0
7007E0
F007E0
F8FFE0
FFFFE0
FFFFC0
FFFFC0
7FFF80
3FFE00
000000
000000
000000
000000
000000
000000
000000
000000
ENDCHAR

STARTCHAR 4
ENCODING 52
SWIDTH 676 0
DWIDTH 23 0
BBX 23 36 0 -7
BITMAP
03FE00
07FF00
07FE00
033C00
033C00
033C00
033C00
033E00
063E00
063E00
0E3E00
0E3E00
1C3E00
1C3E00
3C3E00
383E60
783E70
F87FF0
FFFFF0
FFFFF0
FFFFF0
7FFFE0
003E00
003E00
003F00
00FF80
00FF80
007F80
000000
000000
000000
000000
000000
000000
000000
000000
ENDCHAR

STARTCHAR 5
ENCODING 53
SWIDTH 617 0
DWIDTH 21 0
BBX 21 36 0 -7
BITMAP
000000
787E00
FFFE00
FFFE00
7FFC00
7FFC00
300000
300000
300000
180000
1FFC00
7FFE00
781F00
700F80
600F80
0007C0
0007C0
0007C0
0007C0
7007C0
F807C0
F00FC0
FFFFC0
FFFFC0
FFFF80
FFFF80
7FFF00
1FF800
000000
000000
000000
000000
000000
000000
000000
000000
ENDCHAR

STARTCHAR 6
ENCODING 54
SWIDTH 647 0
DWIDTH 22 0
BBX 22 36 0 -7
BITMAP
000000
000000
03FE00
0FFF00
1E7F00
183F00
381E00
300000
700000
600000
61FC00
67FE00
EE0F00
EC0780
F803C0
F803C0
F801C0
F001E0
F001E0
7803E0
7803E0
7C07C0
7F1FC0
3FFFC0
3FFF80
1FFF80
0FFE00
038000
000000
000000
000000
000000
000000
000000
000000
000000
ENDCHAR

STARTCHAR 7
ENCODING 55
SWIDTH 647 0
DWIDTH 22 0
BBX 22 36 0 -7
BITMAP
000000
000000
000380
FFFFC0
FFFFE0
7FFFC0
7DFB80
3C0700
1E0700
0E0E00
0E0E00
0C0E00
081C00
001C00
003C00
003C00
003C00
007800
007800
007800
00F800
00F800
00F800
00FC00
01FC00
03FE00
03FF00
01FE00
000000
000000
000000
000000
000000
000000
000000
000000
ENDCHAR

STARTCHAR 8
ENCODING 56
SWIDTH 647 0
DWIDTH 22 0
BBX 22 36 0 -7
BITMAP
000000
000000
07F800
1FFE00
7C1F00
780780
780780
780700
780700
780E00
3C1C00
0FF800
07F800
0E1E00
1C0700
380380
300380
7001C0
7001C0
F001C0
F003E0
F003E0
FFFFE0
7FFFC0
7FFFC0
7FFF80
3FFF00
0FF000
000000
000000
000000
000000
000000
000000
000000
000000
ENDCHAR

STARTCHAR 9
ENCODING 57
SWIDTH 676 0
DWIDTH 23 0
BBX 23 36 0 -7
BITMAP
000000
000000
07FC00
1FFE00
3E0780
7C0380
7C01C0
7C01C0
FC01E0
FC01E0
7C01E0
7C01E0
7E03F0
3F8FF0
1FFEF0
07F8F0
0000F0
0000F0
0000F0
0001E0
3801E0
3803E0
783FE0
7FFFC0
7FFFC0
3FFF80
1FFF00
0FFC00
000000
000000
000000
000000
000000
000000
000000
000000
ENDCHAR

STARTCHAR :
ENCODING 58
SWIDTH 441 0
DWIDTH 15 0
BBX 15 36 0 -7
BITMAP
0000
0000
0000
0000
0000
0000
0000
0000
0000
0000
1C00
3E00
7F80
FF00
3E00
1C00
0000
0000
0000
0000
0000
0000
1C00
3E00
7F80
FF00
3E00
1C00
0000
0000
0000
0000
0000
0000
0000
0000
ENDCHAR

STARTCHAR ;
ENCODING 59
SWIDTH 441 0
DWIDTH 15 0
BBX 15 36 0 -7
BITMAP
0000
0000
0000
0000
0000
0000
0000
0000
0000
0000
0000
0000
1C00
3E00
7F80
FF00
3E00
1C00
0000
0000
0000
0000
0000
0000
1C00
3E00
7F80
FF00
3E00
1C00
3800
7000
0000
0000
0000
0000
ENDCHAR

STARTCHAR =
ENCODING 61
SWIDTH 558 0
DWIDTH 19 0
BBX 19 36 0 -7
BITMAP
000000
000000
000000
000000
000000
000000
000000
000000
000000
000000
000000
000000
000000
FFFF00
FFFF00
000000
000000
000000
000000
FFFF00
FFFF00
000000
000000
000000
000000
000000
000000
000000
000000
000000
000000
000000
000000
000000
000000
000000
ENDCHAR

STARTCHAR ?
ENCODING 63
SWIDTH 617 0
DWIDTH 21 0
BBX 21 36 0 -7
BITMAP
1F0000
3FC000
79E000
78F000
F07000
F87800
F87800
707800
007800
007800
007800
007000
01C000
038000
070000
0E0000
0E0000
0E0000
0E0000
0E0000
000000
000000
0E0000
1F0000
3FC000
7F8000
1F0000
0E0000
000000
000000
000000
000000
000000
000000
000000
000000
ENDCHAR

STARTCHAR A
ENCODING 65
SWIDTH 764 0
DWIDTH 26 0
BBX 26 36 0 -7
BITMAP
7FFFF000
FFFFF800
F1FE7800
73BE7800
7B1E7800
3B1FF000
0E1EE000
060DC000
04070000
0C0E0000
0C3F0000
18678000
19C78000
1B878000
3E078000
3C07C000
3803C000
7003C000
6003C000
6003C000
E003E000
E003E000
F001E000
F801E000
F801F000
F801F000
F803FC00
F807FE00
70000000
00000000
00000000
00000000
00000000
00000000
00000000
00000000
ENDCHAR

STARTCHAR B
ENCODING 66
SWIDTH 735 0
DWIDTH 25 0
BBX 25 36 0 -7
BITMAP
7FFFC000
FFFFF000
FFC0F800
E7807800
77807800
3B807800
0C807000
07007000
05C06000
0678C000
079F8000
0787C000
0781E000
0780F000
0780F800
07807800
07807C00
07807C00
07803C00
07803C00
07807C00
07807C00
07807C00
07C1FC00
07FFFC00
0FFFFC00
3FFFF800
7FFFF000
3F8FC000
00000000
00000000
00000000
00000000
00000000
00000000
00000000
ENDCHAR

STARTCHAR C
ENCODING 67
SWIDTH 705 0
DWIDTH 24 0
BBX 24 36 0 -7
BITMAP
007C00
01FF00
0783C0
0E01E0
0CC1E0
1DE1F0
39B1F0
38BFF0
701FF0
701FF0
701FE0
700FC0
F00000
E00000
F00000
F00000
F00000
F00000
F80000
7C0000
7C0000
7E0018
3F8038
3FF3F8
1FFFF0
1FFFF0
07FFE0
03FFC0
007F00
000000
000000
000000
000000
000000
000000
000000
ENDCHAR

STARTCHAR D
ENCODING 68
SWIDTH 764 0
DWIDTH 26 0
BBX 26 36 0 -7
BITMAP
7FF80000
FFFF0000
F7C3C000
73C1E000
33C07000
1BC07000
0EC03800
03803800
00C01800
03701C00
03B81C00
03D81C00
03DC1C00
03F81C00
03F01E00
03801C00
03801E00
07801C00
07803C00
07C03C00
07C07C00
07807C00
0701F800
0FFFF800
1FFFF800
7FFFF000
FFFFE000
7FFFC000
003E0000
00000000
00000000
00000000
00000000
00000000
00000000
00000000
ENDCHAR

STARTCHAR E
ENCODING 69
SWIDTH 676 0
DWIDTH 23 0
BBX 23 36 0 -7
BITMAP
3FFFC0
FFFFE0
FF87E0
FF03E0
3F03C0
1F0700
1F0E00
1F3800
1F7000
1EC000
1F9E00
1DFF00
1FFF00
1DFF00
1EF100
1E0000
1E0000
1E0000
1F0000
1F0000
1F0000
1F0000
1F0030
1FFFF0
3FFFF0
7FFFF0
FFFFF0
FFFFE0
180000
000000
000000
000000
000000
000000
000000
000000
ENDCHAR

STARTCHAR F
ENCODING 70
SWIDTH 676 0
DWIDTH 23 0
BBX 23 36 0 -7
BITMAP
03FF80
7FFFF0
FF83F0
7F03E0
1F03C0
1F0780
1F0F00
1F1C00
1F3800
1F6000
1ECE00
0FFF80
0FFF80
0FFF80
0EF800
0F0000
0F0000
0F0000
0F0000
0F0000
0F0000
0F0000
0F0000
0F0000
0F8000
1FC000
7FE000
7FF000
200000
000000
000000
000000
000000
000000
000000
000000
ENDCHAR

STARTCHAR G
ENCODING 71
SWIDTH 764 0
DWIDTH 26 0
BBX 26 36 0 -7
BITMAP
00000000
007FC000
03FFF000
07FFF000
0F01F000
1E01E000
3C03C000
380F0000
381C0000
70300000
70E00000
71C00000
71C3FE00
71C3FC00
70C1F800
7000F800
7800F800
F800F800
7800F800
7C00F800
7C00F800
3E00F800
3FC3F800
1FFFF800
1FFFF800
0FFFFC00
07FFFC00
01FFF800
00000000
00000000
00000000
00000000
00000000
00000000
00000000
00000000
ENDCHAR

STARTCHAR H
ENCODING 72
SWIDTH 764 0
DWIDTH 26 0
BBX 26 36 0 -7
BITMAP
00000000
7FFFF000
FFFFF000
77C07000
77C03000
39C00000
0F000000
03FE0000
027FC000
03CFF000
03C3F800
03C0F800
03C07C00
03C07C00
03C03C00
03C03C00
03C03E00
03C03E00
03C03C00
03C03C00
03C03C00
03C03C00
03C03800
03C03800
07E03000
0FF03000
1FF86000
00006000
00006000
00006000
00006000
00007C00
00007C00
00000000
00000000
00000000
ENDCHAR

STARTCHAR I
ENCODING 73
SWIDTH 441 0
DWIDTH 15 0
BBX 15 36 0 -7
BITMAP
0000
1F00
FFF0
FFE0
EFC0
6F80
3780
1B80
0E80
0380
0CE0
0F30
0F98
0F88
0F88
0F80
0F80
0F80
0F80
0F80
0F80
0F80
0F80
0F80
0F80
1FC0
3FE0
1800
0000
0000
0000
0000
0000
0000
0000
0000
ENDCHAR

STARTCHAR J
ENCODING 74
SWIDTH 588 0
DWIDTH 20 0
BBX 20 36 0 -7
BITMAP
000000
3FFE00
FFFF80
F80780
780F00
3CFE00
1CFC00
3C7C00
1C7C00
007C00
007C00
007C00
007C00
007C00
007C00
007C00
003C00
003C00
003C00
003C00
003C00
003C00
003C00
003C00
183C00
387C00
787E00
7FFF00
FFFF00
7FFE00
7FFC00
1FF800
000000
000000
000000
000000
ENDCHAR

STARTCHAR K
ENCODING 75
SWIDTH 794 0
DWIDTH 27 0
BBX 27 36 0 -7
BITMAP
00000000
3F000000
FFF0FC00
FFE0F800
CFC0F000
6F80E000
7781C000
3B038000
0E070000
070E0000
0DF80000
0F3F0000
0F1F8000
0F0F8000
0F8FC000
0F07C000
0F07E000
0F03E000
0F03E000
0F03E000
0F01E000
0F01F000
0F01F000
0F81F000
0F81F800
3FC1FC00
7FE0FF00
3FE07F00
00000000
00000000
00000000
00000000
00000000
00000000
00000000
00000000
ENDCHAR

STARTCHAR L
ENCODING 76
SWIDTH 705 0
DWIDTH 24 0
BBX 24 36 0 -7
BITMAP
000000
3FC000
7FC000
3F8000
1F8000
0F8000
0F8000
0F8000
0F8000
0F8000
0F8000
0F8000
0F8000
0F8000
0F8180
0F81C0
0F81C0
0F81C0
0F80C0
0F80C0
0FC060
0FC060
1F01F0
3C1FF0
707FF8
C3FFF8
FFFFF8
7F0000
000000
000000
000000
000000
000000
000000
000000
000000
ENDCHAR

STARTCHAR M
ENCODING 77
SWIDTH 1117 0
DWIDTH 38 0
BBX 38 36 0 -7
BITMAP
0000000000
0003FFFF80
FFFFFFFFC0
FFFFFFFFC0
F3C7E3F1C0
F387C1F3C0
7B03C0FF80
1F03C0FA00
06E001F800
0EFFFF7800
0E01C07C00
0C03C07C00
1C03C03C00
1C03C03E00
1803C03E00
1803C03E00
1803C03E00
1803C01E00
1803C01E00
3803C01E00
3803E01E00
3803E01E00
3803E01E00
3C03E03E00
3E03E03E00
3F07F0FE00
1FCFF9FE00
1FCE30C400
0000000000
0000000000
0000000000
0000000000
0000000000
0000000000
0000000000
0000000000
ENDCHAR

STARTCHAR N
ENCODING 78
SWIDTH 852 0
DWIDTH 29 0
BBX 29 36 0 -7
BITMAP
00000000
3FFFF000
7FFFFC00
FFFFFE00
E780FE00
E7807F00
E7803F00
77801F00
3B801F80
1E801F80
0F801F00
03C01F00
06F01F00
07381F00
079C1E00
078E1E00
078F3C00
078F3800
07803000
07803000
07803000
07803000
07807380
07807FC0
07807FC0
1FE03FC0
3FF03FC0
1FE00C00
00000000
00000000
00000000
00000000
00000000
00000000
00000000
00000000
ENDCHAR

STARTCHAR O
ENCODING 79
SWIDTH 676 0
DWIDTH 23 0
BBX 23 36 0 -7
BITMAP
000000
03F800
07FE00
0E0700
180380
3803C0
7003C0
7002E0
6006E0
E00CF0
E03870
E07070
E1C070
E38070
E30070
E60070
E40070
EC00F0
FC00F0
F800F0
FC01F0
7C03E0
7F0FE0
3FFFE0
3FFFC0
1FFF80
0FFF00
07FE00
000000
000000
000000
000000
000000
000000
000000
000000
ENDCHAR

STARTCHAR P
ENCODING 80
SWIDTH 705 0
DWIDTH 24 0
BBX 24 36 0 -7
BITMAP
000000
0FF000
FFFF00
FF9F80
7E03C0
1E01E0
1E01F0
1E00F8
1E00F8
1E00F8
1E00F8
1E60F8
1EF0F8
1FF1F8
1FFFF8
1FFFF0
1EFFF0
1E7FE0
1E1F80
1E0000
1E0000
1F0000
1F0000
1F0000
1F0000
3F8000
7FE000
780000
000000
000000
000000
000000
000000
000000
000000
000000
ENDCHAR

STARTCHAR Q
ENCODING 81
SWIDTH 676 0
DWIDTH 23 0
BBX 23 36 0 -7
BITMAP
000000
006000
07FE00
0F1F00
1C0780
3807C0
7007C0
7007E0
7006E0
E00EF0
E01CF0
E07870
E0E070
E38070
E30070
E60070
E40070
FC0070
FC00F0
FC00F0
FC01F0
7C03F0
7F07E0
3FFFE0
3FFFC0
1FFFC0
0FFF80
07FE00
003000
003E00
007F00
007F00
003900
000000
000000
000000
ENDCHAR

STARTCHAR R
ENCODING 82
SWIDTH 882 0
DWIDTH 30 0
BBX 30 36 0 -7
BITMAP
00000000
00000000
7FFFF800
FFFFFC00
77C03C00
77803C00
3B803C00
0E803800
07007000
05E1C000
077F8000
078F8000
07C7E000
07C1F800
07C0F800
07C0FC00
07C07C00
07C07C00
07C07C00
07C03C00
07C03C00
07C03E00
07C03E00
07C03E00
07C03E00
0FE03F00
3FF01FC0
3FF01FE0
00000000
00000000
00000000
00000000
00000000
00000000
00000000
00000000
ENDCHAR

STARTCHAR S
ENCODING 83
SWIDTH 676 0
DWIDTH 23 0
BBX 23 36 0 -7
BITMAP
000000
1FFF80
7FFFC0
7807C0
7003C0
780700
7E0600
3F8300
1FE000
07F800
01FE00
007F00
001F80
000FC0
0003E0
1F83E0
3FC1E0
7FE1F0
7FF1F0
7CF1F0
F801F0
F803F0
7C0FF0
7FFFE0
7FFFE0
3FFFC0
1FFF80
07BC00
000000
000000
000000
000000
000000
000000
000000
000000
ENDCHAR

STARTCHAR T
ENCODING 84
SWIDTH 794 0
DWIDTH 27 0
BBX 27 36 0 -7
BITMAP
00000000
00000000
7FFFFE00
FFFFFF00
F87E1F00
783C1E00
3C3C1C00
1C3C1C00
0E3C3800
063C3000
0E3C3800
0C3C3800
003C0000
003C0000
003C0000
003C0000
003C0000
003C0000
003C0000
003C0000
003C0000
003C0000
003C0000
003C0000
007E0000
00FF0000
03FFC000
01FF8000
00000000
00000000
00000000
00000000
00000000
00000000
00000000
00000000
ENDCHAR

STARTCHAR U
ENCODING 85
SWIDTH 764 0
DWIDTH 26 0
BBX 26 36 0 -7
BITMAP
00000000
0007F800
FFC7FC00
FFC3F800
F1C1F000
7981F000
1B01F000
0701F000
0F81F000
0CE1F000
1C71F000
1819F000
380DF000
380DF000
7807F000
7803F000
7803F000
7801F000
7801F000
7801F000
7C01F000
7E01F000
7F83F000
3FFFF000
1FFFF800
0FFFFE00
07FFFE00
01FE0000
00000000
00000000
00000000
00000000
00000000
00000000
00000000
00000000
ENDCHAR

STARTCHAR V
ENCODING 86
SWIDTH 823 0
DWIDTH 28 0
BBX 28 36 0 -7
BITMAP
00000000
3FF81E00
FFF87F00
F0F1FF00
F3C7FF80
2F3C1F00
3EE00F00
3F000F00
1F000F00
1F800F00
0F800E00
07C00E00
07C00C00
07C00C00
03E01C00
03E01800
01F01800
01F03000
00F83000
00F82000
007C6000
007CC000
003F8000
003F8000
001F0000
001F0000
000E0000
000C0000
00000000
00000000
00000000
00000000
00000000
00000000
00000000
00000000
ENDCHAR

STARTCHAR W
ENCODING 87
SWIDTH 1117 0
DWIDTH 38 0
BBX 38 36 0 -7
BITMAP
0000000000
000003FF00
7FF007FFC0
FFF8030DC0
DF18000D80
FF00000D00
3F00000C00
1F6003EC00
0F7FFF8C00
0F03F80C00
0F01F01C00
0F81F01C00
0F81F81800
0781F81800
0781F81800
0781FC1800
07C37C3000
07C37C3000
03C33E3000
03E63E7000
03FE1FE000
01FC1FE000
01FC1FE000
01F80FC000
00F80FC000
00F0078000
0070078000
0060000000
0000000000
0000000000
0000000000
0000000000
0000000000
0000000000
0000000000
0000000000
ENDCHAR

STARTCHAR X
ENCODING 88
SWIDTH 823 0
DWIDTH 28 0
BBX 28 36 0 -7
BITMAP
00001C00
7FF07C00
FFF1FC00
E0E7FC00
E3CC3800
3FB03800
3F407000
1F806000
0FC0C000
07C18000
07E30000
03F60000
01FC0000
00F80000
00FC0000
007E0000
007E0000
01DF0000
039F8000
070F8000
0E07C000
0C03E000
3803F000
7801F800
7C01FE00
FF83FF00
FF87FF80
FF800000
00000000
00000000
00000000
00000000
00000000
00000000
00000000
00000000
ENDCHAR

STARTCHAR Y
ENCODING 89
SWIDTH 823 0
DWIDTH 28 0
BBX 28 36 0 -7
BITMAP
00000000
03F80F00
FFFC7F80
F0F1FF80
F1CF8F00
2FBC0F00
1FC00F00
0FC00E00
07E00C00
03F01C00
03F01800
01F83000
00FC6000
007EC000
007F8000
003F0000
001F0000
000F0000
000F0000
000F0000
000F0000
000F0000
000F0000
000F8000
000F8000
003FE000
007FF000
007FE000
00000000
00000000
00000000
00000000
00000000
00000000
00000000
00000000
ENDCHAR

STARTCHAR Z
ENCODING 90
SWIDTH 794 0
DWIDTH 27 0
BBX 27 36 0 -7
BITMAP
00000000
0FFFF000
FFFFF800
FC01F800
F801F800
7803F000
3C03E000
0E07E000
0787C000
078F8000
079F0000
071F0000
073E0000
067C6000
007CE000
00F9E000
01F1E000
03F1E000
03E1E000
07C07800
0F801C00
0F800E00
1F000E00
3FFFFF00
7FFFFF00
7FFFFF00
7FFFFF00
3FF1F800
00000000
00000000
00000000
00000000
00000000
00000000
00000000
00000000
ENDCHAR

STARTCHAR [
ENCODING 91
SWIDTH 441 0
DWIDTH 15 0
BBX 15 36 0 -7
BITMAP
FF80
FF80
FC00
F800
F800
F800
7800
7800
7800
7800
7800
7800
7800
7800
7800
7800
7800
7800
7800
7800
7800
7800
F800
F800
FC00
FF80
FF80
FF80
0000
0000
0000
0000
0000
0000
0000
0000
ENDCHAR

STARTCHAR ]
ENCODING 93
SWIDTH 441 0
DWIDTH 15 0
BBX 15 36 0 -7
BITMAP
FF80
FF80
1F80
0F80
0F80
0F80
0F00
0F00
0F00
0F00
0F00
0F00
0F00
0F00
0F00
0F00
0F00
0F00
0F00
0F00
0F00
0F00
0F80
0F80
1F80
FF80
FF80
FF80
0000
0000
0000
0000
0000
0000
0000
0000
ENDCHAR

STARTCHAR `
ENCODING 96
SWIDTH 264 0
DWIDTH 9 0
BBX 9 36 0 -7
BITMAP
3C00
7F00
FF00
FF00
E700
C000
6000
3800
1C00
0C00
0800
0000
0000
0000
0000
0000
0000
0000
0000
0000
0000
0000
0000
0000
0000
0000
0000
0000
0000
0000
0000
0000
0000
0000
0000
0000
ENDCHAR

STARTCHAR a
ENCODING 97
SWIDTH 588 0
DWIDTH 20 0
BBX 20 36 0 -7
BITMAP
000000
000000
000000
000000
000000
000000
000000
000000
000000
1FFC00
7FFE00
F83F00
F81F00
7FFF00
7FFF00
01DF00
071F00
1C1F00
381F00
781F00
F81F00
F81F00
F81F00
FFFF00
FFFF00
FFFF80
7FFF80
7FFF80
000000
000000
000000
000000
000000
000000
000000
000000
ENDCHAR

STARTCHAR b
ENCODING 98
SWIDTH 617 0
DWIDTH 21 0
BBX 21 36 0 -7
BITMAP
000000
000000
FC0000
FC0000
FC0000
7C0000
7C0000
7C0000
3C0000
3CFC00
3FFE00
3F8F00
3E0780
3C03C0
3C03C0
3C03C0
3C03C0
3C03C0
3C03C0
3C03C0
3C03C0
3E03C0
3E07C0
3FFFC0
3FFF80
3FFF80
1FFF00
1FFE00
000000
000000
000000
000000
000000
000000
000000
000000
ENDCHAR

STARTCHAR c
ENCODING 99
SWIDTH 529 0
DWIDTH 18 0
BBX 18 36 0 -7
BITMAP
000000
000000
000000
000000
000000
000000
000000
000000
000000
07F000
1FF800
383C00
707C00
70FC00
E0FC00
E03800
E00000
E00000
E00000
E00000
E00000
F00000
F80600
FFFE00
7FFE00
7FFE00
3FFE00
1FFC00
000000
000000
000000
000000
000000
000000
000000
000000
ENDCHAR

STARTCHAR d
ENCODING 100
SWIDTH 617 0
DWIDTH 21 0
BBX 21 36 0 -7
BITMAP
000000
003E00
007F00
003F00
001F00
001F00
001F00
001F00
071F00
1FFF00
3FFF00
783F00
701F00
F00F00
F00F00
E00F00
E00F00
E00F00
E00F00
F00F00
F00F00
F00F00
F81F00
FFFF00
7FFF80
3FFFC0
3FFFC0
0FFFC0
000000
000000
000000
000000
000000
000000
000000
000000
ENDCHAR

STARTCHAR e
ENCODING 101
SWIDTH 588 0
DWIDTH 20 0
BBX 20 36 0 -7
BITMAP
000000
000000
000000
000000
000000
000000
000000
000000
000000
07FE00
1F7F00
380F00
380F00
700F00
701E00
703800
70F000
F1C000
F38000
F70000
760100
7E0180
7E0780
7FFF80
3FFF80
3FFF00
1FFF00
07FC00
000000
000000
000000
000000
000000
000000
000000
000000
ENDCHAR

STARTCHAR f
ENCODING 102
SWIDTH 352 0
DWIDTH 12 0
BBX 12 36 0 -7
BITMAP
3C00
FFC0
FFC0
FFC0
FFC0
FF00
7000
7C00
FF80
7F80
3F00
3E00
1E00
1E00
1E00
1E00
1E00
1E00
1E00
1E00
1E00
1E00
1E00
1E00
1E00
7F00
7F80
7F80
0000
0000
0000
0000
0000
0000
0000
0000
ENDCHAR

STARTCHAR g
ENCODING 103
SWIDTH 588 0
DWIDTH 20 0
BBX 20 36 0 -7
BITMAP
000000
000000
000000
000000
000000
000000
000000
000000
000000
000000
03FF80
0FFF80
1E3F80
3C1F00
781F00
700F00
F00F00
F00F00
F00F00
F00F00
F00F00
F00F00
F01F00
F81F00
FC3F00
FFFF00
7FFF00
7FFF00
3FFF00
0FFF00
000F00
E00F00
F00F00
F83F00
FFFE00
7FF800
ENDCHAR

STARTCHAR h
ENCODING 104
SWIDTH 617 0
DWIDTH 21 0
BBX 21 36 0 -7
BITMAP
000000
000000
000000
FE0000
FE0000
7C0000
7C0000
7C0000
7C0000
7C0000
7C7C00
7DFE00
7FFF00
7E1F00
7C0F00
3C0F00
3C0F00
3C0F00
3C0F00
3C0F00
3C0F00
3C0F00
3C0F00
3C0F80
3C0F80
3E0F80
7F1FC0
FF1FC0
000000
000000
000000
000000
000000
000000
000000
000000
ENDCHAR

STARTCHAR i
ENCODING 105
SWIDTH 264 0
DWIDTH 9 0
BBX 9 36 0 -7
BITMAP
0000
0000
0000
0000
0000
7800
7800
0000
0000
0000
3800
FC00
7C00
7800
7800
7800
7800
7800
7800
7800
7800
7800
7800
7800
7800
7C00
FE00
FE00
0000
0000
0000
0000
0000
0000
0000
0000
ENDCHAR

STARTCHAR j
ENCODING 106
SWIDTH 352 0
DWIDTH 12 0
BBX 12 36 0 -7
BITMAP
0000
0000
0000
0000
0000
0F00
0F00
0000
0000
0000
0FC0
0F80
0780
0780
0780
0780
0780
0780
0780
0780
0780
0780
0780
0780
0780
0780
0780
07C0
63C0
F1C0
F9C0
E1C0
E380
7F00
0000
0000
ENDCHAR

STARTCHAR k
ENCODING 107
SWIDTH 705 0
DWIDTH 24 0
BBX 24 36 0 -7
BITMAP
000000
000000
000000
000000
FF0000
FE0000
3C0000
3C0000
3C0000
3C0000
3C1800
3CFF00
39CF80
3F07C0
3C03C0
3C0780
3CFE00
3CC000
3C3800
3C1E00
3C0F00
3C0780
3C0780
3C07C0
3C07C0
3E07C0
7F07F8
7F03F0
000000
000000
000000
000000
000000
000000
000000
000000
ENDCHAR

STARTCHAR l
ENCODING 108
SWIDTH 264 0
DWIDTH 9 0
BBX 9 36 0 -7
BITMAP
0000
0000
0000
3800
F800
F800
7800
7800
7800
7800
7800
7800
7800
7800
7800
7800
7800
7800
7800
7800
7800
7800
7800
7C00
7C00
7C00
FE00
FE00
0000
0000
0000
0000
0000
0000
0000
0000
ENDCHAR

STARTCHAR m
ENCODING 109
SWIDTH 911 0
DWIDTH 31 0
BBX 31 36 0 -7
BITMAP
00000000
00000000
00000000
00000000
00000000
00000000
00000000
00000000
00000000
00000000
FE380F00
FE7E1F80
7DFE3FC0
7FBFF7C0
7C1F83C0
781F03C0
781F03C0
780F03C0
780F03C0
780F03C0
780F03C0
780F03C0
780F03C0
780F03E0
780F03E0
7C0F03E0
FE3F87F0
FE3F83E0
00000000
00000000
00000000
00000000
00000000
00000000
00000000
00000000
ENDCHAR

STARTCHAR n
ENCODING 110
SWIDTH 588 0
DWIDTH 20 0
BBX 20 36 0 -7
BITMAP
000000
000000
000000
000000
000000
000000
000000
000000
000000
000000
FE7C00
FEFC00
FDFE00
7FBE00
7E1E00
7C1E00
7C0E00
7C0E00
7C0E00
7C0E00
7C0E00
7C0E00
7C0F00
7C0F00
7C0F00
7C1F00
7E3F80
FE1F00
000000
000000
000000
000000
000000
000000
000000
000000
ENDCHAR

STARTCHAR o
ENCODING 111
SWIDTH 588 0
DWIDTH 20 0
BBX 20 36 0 -7
BITMAP
000000
000000
000000
000000
000000
000000
000000
000000
000000
03E000
0FF800
1C1C00
380E00
700F00
700700
700700
E00700
F00780
F00780
F00F80
F80F00
7C1F00
7FFF00
7FFE00
3FFE00
3FFC00
1FF800
078000
000000
000000
000000
000000
000000
000000
000000
000000
ENDCHAR

STARTCHAR p
ENCODING 112
SWIDTH 588 0
DWIDTH 20 0
BBX 20 36 0 -7
BITMAP
000000
000000
000000
000000
000000
000000
000000
000000
000000
000000
FE7800
FEFC00
7F9E00
3E0F00
3C0700
3C0380
3C0380
3C0380
3C0380
3C0380
3C0380
3D0780
3F8780
3F9F00
3FFF00
3FFE00
3FFC00
3CF000
3C0000
3C0000
3C0000
7C0000
FE0000
FF0000
000000
000000
ENDCHAR

STARTCHAR q
ENCODING 113
SWIDTH 588 0
DWIDTH 20 0
BBX 20 36 0 -7
BITMAP
000000
000000
000000
000000
000000
000000
000000
000000
000000
000000
0F3F80
1FDF00
3FFE00
703E00
701E00
E01E00
E01E00
E01E00
E01E00
E01E00
E01E00
E01E00
F01E00
F87E00
7FFE00
7FFE00
3FFE00
1FEE00
000F00
000F00
000F80
000F80
000F00
000E00
000000
000000
ENDCHAR

STARTCHAR r
ENCODING 114
SWIDTH 441 0
DWIDTH 15 0
BBX 15 36 0 -7
BITMAP
0000
0000
0000
0000
0000
0000
0000
0000
0000
0000
0000
FCE0
79F0
7FF8
7C78
7878
7870
7870
7840
7800
7800
7800
7800
7800
7800
7800
FC00
FC00
0000
0000
0000
0000
0000
0000
0000
0000
ENDCHAR

STARTCHAR s
ENCODING 115
SWIDTH 588 0
DWIDTH 20 0
BBX 20 36 0 -7
BITMAP
000000
000000
000000
000000
000000
000000
000000
000000
000000
000000
07F800
7FFE00
7C0E00
7C0000
7E0000
3F8000
0FF000
01FC00
007E00
003F00
701F00
780F80
780F80
F81F80
FFFF80
FFFF00
7FFF00
3FFC00
000000
000000
000000
000000
000000
000000
000000
000000
ENDCHAR

STARTCHAR t
ENCODING 116
SWIDTH 352 0
DWIDTH 12 0
BBX 12 36 0 -7
BITMAP
0000
0000
0000
0000
0C00
1800
7800
F800
7800
7800
F800
FFC0
7F80
7F80
7B80
7980
7800
7800
7800
7800
7800
7800
7800
7800
7800
7C00
FE00
FE00
0000
0000
0000
0000
0000
0000
0000
0000
ENDCHAR

STARTCHAR u
ENCODING 117
SWIDTH 588 0
DWIDTH 20 0
BBX 20 36 0 -7
BITMAP
000000
000000
000000
000000
000000
000000
000000
000000
000000
000000
000780
F83F80
F81F00
780F00
780F00
780F00
780F00
780F00
780F00
780F00
7C0F00
7C0F00
3C0F00
3C1F00
3FFF00
3FFF00
3F9F80
1F3E00
000000
000000
000000
000000
000000
000000
000000
000000
ENDCHAR

STARTCHAR v
ENCODING 118
SWIDTH 647 0
DWIDTH 22 0
BBX 22 36 0 -7
BITMAP
000000
000000
000000
000000
000000
000000
000000
000000
000000
000000
FF7FE0
7E7BE0
3E31E0
1E20C0
1E00C0
0F01C0
0F0180
0F0180
078100
078100
03C300
03C200
01E200
01FC00
01FC00
00F800
00F000
007000
000000
000000
000000
000000
000000
000000
000000
000000
ENDCHAR

STARTCHAR w
ENCODING 119
SWIDTH 794 0
DWIDTH 27 0
BBX 27 36 0 -7
BITMAP
00000000
00000000
00000000
00000000
00000000
00000000
00000000
00000000
00000000
00000000
FE3FFE00
7E700F00
3E600600
3E620600
1E060600
1E060400
1F070C00
0F0F0C00
0F0F0800
078F8800
079F9800
07DB9000
03F3F000
03F3F000
03F1E000
01E1E000
01E1E000
00E08000
00000000
00000000
00000000
00000000
00000000
00000000
00000000
00000000
ENDCHAR

STARTCHAR x
ENCODING 120
SWIDTH 588 0
DWIDTH 20 0
BBX 20 36 0 -7
BITMAP
000000
000000
000000
000000
000000
000000
000000
000000
000000
000000
000000
FF9F00
7FCE00
3C0C00
1E1800
1E3000
0F2000
07C000
03C000
03C000
03E000
06F000
0C7800
183800
383C00
781E00
F81F00
FC3F80
000000
000000
000000
000000
000000
000000
000000
000000
ENDCHAR

STARTCHAR y
ENCODING 121
SWIDTH 617 0
DWIDTH 21 0
BBX 21 36 0 -7
BITMAP
000000
000000
000000
000000
000000
000000
000000
000000
000000
000000
000000
FF83C0
F9FFC0
7983C0
3C03C0
3C0380
1E0380
1E0300
0F0300
0F0600
070600
078C00
038C00
01F800
01F000
00F000
00F000
00F000
00F000
00F000
03F000
07E000
03E000
01E000
01E000
000000
ENDCHAR

STARTCHAR z
ENCODING 122
SWIDTH 588 0
DWIDTH 20 0
BBX 20 36 0 -7
BITMAP
000000
000000
000000
000000
000000
000000
000000
000000
000000
000000
7FFF00
FFFF00
701F00
303E00
307C00
007C00
00F800
01F000
03E000
07C000
0F8300
0F0300
1F0300
3FFF00
7FFF80
FFFF80
FFFF80
FFFF80
000000
000000
000000
000000
000000
000000
000000
000000
ENDCHAR
ENDFONT
